<?xml version="1.0" encoding="utf-8"?>
<!-- Generator: Adobe Illustrator 20.1.0, SVG Export Plug-In . SVG Version: 6.00 Build 0)  -->
<svg version="1.1" id="Layer_1" xmlns="http://www.w3.org/2000/svg" xmlns:xlink="http://www.w3.org/1999/xlink" x="0px" y="0px"
	 viewBox="0 0 76 84" style="enable-background:new 0 0 76 84;" xml:space="preserve">
<style type="text/css">
	.st0{fill:#00B1A6;}
	.st1{fill:#00BFAB;}
	.st2{fill:#100B41;}
	.st3{fill:#251E5E;}
	.st4{fill:#463899;}
	.st5{fill:#9689C0;}
	.st6{fill:#B3AAD4;}
	.st7{fill:#FF5CA4;}
	.st8{fill:#FFA2C9;}
	.st9{fill:#FFFFFF;}
	.st10{fill:none;stroke:#251E5E;stroke-width:3;stroke-miterlimit:10;}
	.st11{fill:#FFA2C9;stroke:#251E5E;stroke-width:3;stroke-miterlimit:10;}
	.st12{fill:#F9C7E1;stroke:#251E5E;stroke-width:3;stroke-miterlimit:10;}
	.st13{fill:#AD6889;}
	.st14{fill:#F9C7E1;}
	.st15{fill:#251E5E;stroke:#251E5E;stroke-miterlimit:10;}
	.st16{fill:#FFFFFF;stroke:#251E5E;stroke-width:3;stroke-miterlimit:10;}
	.st17{fill:none;stroke:#98EDE3;stroke-width:2;stroke-miterlimit:10;}
	.st18{fill:none;stroke:#FFFFFF;stroke-width:2;stroke-miterlimit:10;}
	.st19{fill:#CE2127;}
	.st20{fill:#761415;}
	.st21{fill:#D18C27;}
	.st22{fill:#F99B1D;}
	.st23{fill:#1A382C;}
	.st24{fill:#61996C;}
	.st25{fill:#9FBB70;}
	.st26{fill:#A9BB4D;}
	.st27{fill:#4A2400;}
	.st28{fill:#142803;}
	.st29{fill:#7A0110;}
	.st30{fill:#C3464A;}
	.st31{fill:#5B7919;}
	.st32{fill:#FFCCA1;}
	.st33{fill:#C95F09;}
	.st34{fill:#D32E28;}
	.st35{fill:#F9AC90;}
	.st36{fill:#740F13;}
	.st37{fill:#EE7653;}
	.st38{fill:#A5290D;}
	.st39{fill:#FD8D99;}
	.st40{fill:#09AFA4;}
	.st41{fill:#00BFAB;stroke:#98EDE3;stroke-width:2;stroke-miterlimit:10;}
</style>
<g>
	<g>
		<polygon class="st16" points="22,33.6 31.5,23.7 45.2,22.8 57.2,31.7 57.2,46.5 46.4,57.2 27.4,54.3 20.6,43.2 		"/>
		<polygon class="st16" points="16.3,46.9 12.7,50.2 12.7,54.6 18.1,59.7 24,57.4 23.1,49.4 		"/>
		<polygon class="st16" points="32.4,54.7 26.7,55.5 26.7,62.8 36.6,66.2 38.4,58.3 		"/>
		<polygon class="st16" points="53.8,46.8 63.3,49 60.6,57.3 52,57.3 49.7,50.2 		"/>
		<polygon class="st16" points="46.6,53.5 52.4,61.9 44.3,64.9 39.6,60.8 		"/>
		<polygon class="st3" points="18.4,19.6 33,37.6 43.8,13.5 		"/>
		<polygon class="st9" points="35.9,19.9 27.1,22.8 31.1,27.7 31.5,23.7 		"/>
	</g>
</g>
</svg>
